<mxfile host="app.diagrams.net" agent="Mozilla/5.0 (Windows NT 10.0; Win64; x64) AppleWebKit/537.36 (KHTML, like Gecko) Chrome/129.0.0.0 Safari/537.36" version="24.7.17">
  <diagram name="PÃ¡gina-1" id="SLrE-gyxGCfQSmFmLqbf">
    <mxGraphModel dx="1434" dy="746" grid="1" gridSize="10" guides="1" tooltips="1" connect="1" arrows="1" fold="1" page="1" pageScale="1" pageWidth="827" pageHeight="1169" math="0" shadow="0">
      <root>
        <mxCell id="0" />
        <mxCell id="1" parent="0" />
        <mxCell id="0GhE9AetelOUBZOPo_DK-29" value="" style="rounded=1;whiteSpace=wrap;html=1;fillColor=#eeeeee;strokeColor=#36393d;" vertex="1" parent="1">
          <mxGeometry x="40" y="90" width="760" height="570" as="geometry" />
        </mxCell>
        <mxCell id="0GhE9AetelOUBZOPo_DK-1" value="&lt;b&gt;&lt;font style=&quot;font-size: 20px;&quot;&gt;DIAGRAMA DE CASO DE USO&lt;/font&gt;&lt;/b&gt;" style="rounded=1;whiteSpace=wrap;html=1;fillColor=#d5e8d4;gradientColor=#97d077;strokeColor=#82b366;" vertex="1" parent="1">
          <mxGeometry x="460" y="340" width="320" height="60" as="geometry" />
        </mxCell>
        <mxCell id="0GhE9AetelOUBZOPo_DK-5" style="edgeStyle=orthogonalEdgeStyle;rounded=0;orthogonalLoop=1;jettySize=auto;html=1;exitX=0.5;exitY=0.5;exitDx=0;exitDy=0;exitPerimeter=0;" edge="1" parent="1" source="0GhE9AetelOUBZOPo_DK-2" target="0GhE9AetelOUBZOPo_DK-6">
          <mxGeometry relative="1" as="geometry">
            <mxPoint x="240" y="225" as="targetPoint" />
          </mxGeometry>
        </mxCell>
        <mxCell id="0GhE9AetelOUBZOPo_DK-2" value="" style="shape=umlActor;verticalLabelPosition=bottom;verticalAlign=top;html=1;fillColor=#6d8764;strokeColor=#3A5431;fontColor=#ffffff;fontStyle=1" vertex="1" parent="1">
          <mxGeometry x="60" y="190" width="40" height="70" as="geometry" />
        </mxCell>
        <mxCell id="0GhE9AetelOUBZOPo_DK-7" style="edgeStyle=orthogonalEdgeStyle;rounded=0;orthogonalLoop=1;jettySize=auto;html=1;exitX=0.5;exitY=0.5;exitDx=0;exitDy=0;exitPerimeter=0;" edge="1" parent="1" source="0GhE9AetelOUBZOPo_DK-4">
          <mxGeometry relative="1" as="geometry">
            <mxPoint x="160" y="505" as="targetPoint" />
          </mxGeometry>
        </mxCell>
        <mxCell id="0GhE9AetelOUBZOPo_DK-4" value="" style="shape=umlActor;verticalLabelPosition=bottom;verticalAlign=top;html=1;fillColor=#6d8764;strokeColor=#3A5431;fontColor=#ffffff;" vertex="1" parent="1">
          <mxGeometry x="70" y="470" width="40" height="70" as="geometry" />
        </mxCell>
        <mxCell id="0GhE9AetelOUBZOPo_DK-6" value="Cadastrar&amp;nbsp;&lt;div&gt;Turmas&lt;/div&gt;" style="ellipse;whiteSpace=wrap;html=1;fillColor=#ffcd28;gradientColor=#ffa500;strokeColor=#d79b00;" vertex="1" parent="1">
          <mxGeometry x="170" y="197.5" width="106" height="55" as="geometry" />
        </mxCell>
        <mxCell id="0GhE9AetelOUBZOPo_DK-8" value="Cadastrar&amp;nbsp;&lt;div&gt;Atividades&lt;/div&gt;" style="ellipse;whiteSpace=wrap;html=1;fillColor=#ffcd28;gradientColor=#ffa500;strokeColor=#d79b00;" vertex="1" parent="1">
          <mxGeometry x="160" y="477.5" width="106" height="55" as="geometry" />
        </mxCell>
        <mxCell id="0GhE9AetelOUBZOPo_DK-10" value="Fazer&lt;div&gt;Login&lt;/div&gt;" style="ellipse;whiteSpace=wrap;html=1;fillColor=#dae8fc;gradientColor=#7ea6e0;strokeColor=#6c8ebf;" vertex="1" parent="1">
          <mxGeometry x="290" y="120" width="106" height="55" as="geometry" />
        </mxCell>
        <mxCell id="0GhE9AetelOUBZOPo_DK-11" value="Visualizar&lt;div&gt;Turmas&lt;/div&gt;" style="ellipse;whiteSpace=wrap;html=1;fillColor=#dae8fc;gradientColor=#7ea6e0;strokeColor=#6c8ebf;" vertex="1" parent="1">
          <mxGeometry x="361" y="175" width="106" height="55" as="geometry" />
        </mxCell>
        <mxCell id="0GhE9AetelOUBZOPo_DK-12" value="Criar&lt;div&gt;Nova&lt;/div&gt;&lt;div&gt;Turma&lt;/div&gt;" style="ellipse;whiteSpace=wrap;html=1;fillColor=#dae8fc;gradientColor=#7ea6e0;strokeColor=#6c8ebf;" vertex="1" parent="1">
          <mxGeometry x="361" y="240" width="106" height="55" as="geometry" />
        </mxCell>
        <mxCell id="0GhE9AetelOUBZOPo_DK-13" value="Excluir&lt;div&gt;Turmas&lt;/div&gt;" style="ellipse;whiteSpace=wrap;html=1;fillColor=#dae8fc;gradientColor=#7ea6e0;strokeColor=#6c8ebf;" vertex="1" parent="1">
          <mxGeometry x="290" y="295" width="106" height="55" as="geometry" />
        </mxCell>
        <mxCell id="0GhE9AetelOUBZOPo_DK-14" value="Criar&lt;div&gt;Atividades&lt;/div&gt;" style="ellipse;whiteSpace=wrap;html=1;fillColor=#dae8fc;gradientColor=#7ea6e0;strokeColor=#6c8ebf;" vertex="1" parent="1">
          <mxGeometry x="290" y="400" width="106" height="55" as="geometry" />
        </mxCell>
        <mxCell id="0GhE9AetelOUBZOPo_DK-15" value="Visualizar&lt;div&gt;Atividades&lt;/div&gt;" style="ellipse;whiteSpace=wrap;html=1;fillColor=#dae8fc;gradientColor=#7ea6e0;strokeColor=#6c8ebf;" vertex="1" parent="1">
          <mxGeometry x="361" y="455" width="106" height="55" as="geometry" />
        </mxCell>
        <mxCell id="0GhE9AetelOUBZOPo_DK-16" value="Voltar&lt;div&gt;Turmas&lt;/div&gt;" style="ellipse;whiteSpace=wrap;html=1;fillColor=#dae8fc;gradientColor=#7ea6e0;strokeColor=#6c8ebf;" vertex="1" parent="1">
          <mxGeometry x="361" y="520" width="106" height="55" as="geometry" />
        </mxCell>
        <mxCell id="0GhE9AetelOUBZOPo_DK-17" value="Excluir&lt;div&gt;Atividades&lt;/div&gt;" style="ellipse;whiteSpace=wrap;html=1;fillColor=#dae8fc;gradientColor=#7ea6e0;strokeColor=#6c8ebf;" vertex="1" parent="1">
          <mxGeometry x="290" y="575" width="106" height="55" as="geometry" />
        </mxCell>
        <mxCell id="0GhE9AetelOUBZOPo_DK-21" value="" style="endArrow=classic;html=1;rounded=0;entryX=0;entryY=1;entryDx=0;entryDy=0;" edge="1" parent="1" target="0GhE9AetelOUBZOPo_DK-10">
          <mxGeometry width="50" height="50" relative="1" as="geometry">
            <mxPoint x="266" y="210" as="sourcePoint" />
            <mxPoint x="316" y="160" as="targetPoint" />
          </mxGeometry>
        </mxCell>
        <mxCell id="0GhE9AetelOUBZOPo_DK-22" value="" style="endArrow=classic;html=1;rounded=0;entryX=0;entryY=0.5;entryDx=0;entryDy=0;" edge="1" parent="1" target="0GhE9AetelOUBZOPo_DK-11">
          <mxGeometry width="50" height="50" relative="1" as="geometry">
            <mxPoint x="276" y="220" as="sourcePoint" />
            <mxPoint x="315" y="177" as="targetPoint" />
          </mxGeometry>
        </mxCell>
        <mxCell id="0GhE9AetelOUBZOPo_DK-23" value="" style="endArrow=classic;html=1;rounded=0;entryX=0.057;entryY=0.291;entryDx=0;entryDy=0;exitX=1;exitY=0.5;exitDx=0;exitDy=0;entryPerimeter=0;" edge="1" parent="1" source="0GhE9AetelOUBZOPo_DK-6" target="0GhE9AetelOUBZOPo_DK-12">
          <mxGeometry width="50" height="50" relative="1" as="geometry">
            <mxPoint x="286" y="230" as="sourcePoint" />
            <mxPoint x="371" y="213" as="targetPoint" />
          </mxGeometry>
        </mxCell>
        <mxCell id="0GhE9AetelOUBZOPo_DK-24" value="" style="endArrow=classic;html=1;rounded=0;entryX=0.255;entryY=0.055;entryDx=0;entryDy=0;exitX=1;exitY=0.5;exitDx=0;exitDy=0;entryPerimeter=0;" edge="1" parent="1" target="0GhE9AetelOUBZOPo_DK-13">
          <mxGeometry width="50" height="50" relative="1" as="geometry">
            <mxPoint x="266" y="240" as="sourcePoint" />
            <mxPoint x="357" y="271" as="targetPoint" />
          </mxGeometry>
        </mxCell>
        <mxCell id="0GhE9AetelOUBZOPo_DK-25" value="" style="endArrow=classic;html=1;rounded=0;entryX=0;entryY=1;entryDx=0;entryDy=0;" edge="1" parent="1" target="0GhE9AetelOUBZOPo_DK-14">
          <mxGeometry width="50" height="50" relative="1" as="geometry">
            <mxPoint x="260" y="493" as="sourcePoint" />
            <mxPoint x="299" y="450" as="targetPoint" />
          </mxGeometry>
        </mxCell>
        <mxCell id="0GhE9AetelOUBZOPo_DK-26" value="" style="endArrow=classic;html=1;rounded=0;entryX=0.028;entryY=0.636;entryDx=0;entryDy=0;entryPerimeter=0;exitX=1;exitY=0.5;exitDx=0;exitDy=0;" edge="1" parent="1" source="0GhE9AetelOUBZOPo_DK-8" target="0GhE9AetelOUBZOPo_DK-15">
          <mxGeometry width="50" height="50" relative="1" as="geometry">
            <mxPoint x="270" y="505" as="sourcePoint" />
            <mxPoint x="315" y="457" as="targetPoint" />
          </mxGeometry>
        </mxCell>
        <mxCell id="0GhE9AetelOUBZOPo_DK-27" value="" style="endArrow=classic;html=1;rounded=0;exitX=0.953;exitY=0.7;exitDx=0;exitDy=0;exitPerimeter=0;entryX=0;entryY=0.5;entryDx=0;entryDy=0;" edge="1" parent="1" source="0GhE9AetelOUBZOPo_DK-8" target="0GhE9AetelOUBZOPo_DK-16">
          <mxGeometry width="50" height="50" relative="1" as="geometry">
            <mxPoint x="276" y="515" as="sourcePoint" />
            <mxPoint x="360" y="540" as="targetPoint" />
          </mxGeometry>
        </mxCell>
        <mxCell id="0GhE9AetelOUBZOPo_DK-28" value="" style="endArrow=classic;html=1;rounded=0;exitX=1;exitY=1;exitDx=0;exitDy=0;entryX=0;entryY=0;entryDx=0;entryDy=0;" edge="1" parent="1" source="0GhE9AetelOUBZOPo_DK-8" target="0GhE9AetelOUBZOPo_DK-17">
          <mxGeometry width="50" height="50" relative="1" as="geometry">
            <mxPoint x="271" y="526" as="sourcePoint" />
            <mxPoint x="371" y="558" as="targetPoint" />
          </mxGeometry>
        </mxCell>
        <mxCell id="0GhE9AetelOUBZOPo_DK-32" value="&lt;b&gt;Professor&lt;/b&gt;" style="text;html=1;align=center;verticalAlign=middle;resizable=0;points=[];autosize=1;strokeColor=none;fillColor=none;" vertex="1" parent="1">
          <mxGeometry x="40" y="260" width="80" height="30" as="geometry" />
        </mxCell>
        <mxCell id="0GhE9AetelOUBZOPo_DK-38" value="&lt;b&gt;Professor&lt;/b&gt;" style="text;html=1;align=center;verticalAlign=middle;resizable=0;points=[];autosize=1;strokeColor=none;fillColor=none;" vertex="1" parent="1">
          <mxGeometry x="50" y="540" width="80" height="30" as="geometry" />
        </mxCell>
      </root>
    </mxGraphModel>
  </diagram>
</mxfile>
